<svg xmlns="http://www.w3.org/2000/svg" xmlns:xlink="http://www.w3.org/1999/xlink" version="1.1" x="0px" y="0px" viewBox="0 0 100 125" enable-background="new 0 0 100 100" xml:space="preserve"><g><path d="M34.406,48.178c1.515-0.807,3.036-1.491,4.563-2.062c0.712-8.474,4.411-18.566,11.07-30.193l1.409,2.571   c1.252,2.296,2.385,4.528,3.396,6.697c1.847,0.242,3.647,0.628,5.391,1.15c-1.23-2.891-2.674-5.885-4.323-8.975l0.003-0.001   c-1.836-3.603-5.891-10.237-5.891-10.237l-3.231,5.475l0.004,0.003C38.798,26.318,34.661,38.215,34.406,48.178z"/><path d="M45.762,26.104c-0.772,1.683-1.471,3.326-2.095,4.929c2.147-0.508,4.382-0.783,6.682-0.783   c15.902,0,28.856,12.832,29.067,28.686c1.404,1.453,2.802,3.019,4.192,4.684c0.18-1.407,0.284-2.837,0.284-4.292   c0-18.496-15.048-33.544-33.543-33.544C48.792,25.782,47.263,25.897,45.762,26.104z"/><path d="M27.082,76.747c-3.646-4.858-5.811-10.892-5.811-17.421c0-10.83,5.956-20.289,14.76-25.293   c0.595-1.93,1.296-3.909,2.101-5.938c-12.471,4.896-21.328,17.045-21.328,31.23c0,6.627,1.94,12.806,5.27,18.013   C23.8,77.174,25.471,76.978,27.082,76.747z"/><path d="M78.371,67.07C74.972,79.355,63.7,88.404,50.349,88.404c-6.778,0-13.016-2.337-17.966-6.239   c-1.825,0.351-3.721,0.658-5.689,0.92c6.07,6.044,14.433,9.786,23.655,9.786c14.301,0,26.536-9.002,31.351-21.634   C80.592,69.771,79.481,68.383,78.371,67.07z"/><path d="M60.219,51.522c0.125-1.521,0.138-3.106,0.024-4.761c-3.386-1.201-6.794-1.811-10.22-1.811   c-9.449,0-18.761,4.591-27.841,13.676c-0.005,0.233-0.018,0.465-0.018,0.699c0,1.798,0.176,3.555,0.5,5.259   c9.06-10.074,18.219-15.168,27.359-15.168C53.421,49.417,56.822,50.122,60.219,51.522z"/><path d="M57.754,32.136c4.458,12.13,4.611,21.976,0.425,29.4c-1.721,3.052-4.183,5.7-7.364,7.949   c1.309,0.848,2.732,1.632,4.271,2.353c2.922-2.349,5.258-5.049,6.983-8.109c4.397-7.798,4.744-17.675,1.079-29.5   C61.442,33.354,59.638,32.649,57.754,32.136z"/><path d="M67.95,81.315c1.431-1.148,2.748-2.43,3.931-3.831c-15.282-2.342-25.35-7.676-30.014-15.948   c-1.469-2.606-2.397-5.515-2.799-8.711c-1.388,0.635-2.776,1.393-4.163,2.267c0.563,3.113,1.582,5.995,3.071,8.637   C42.97,72.587,53.021,78.465,67.95,81.315z"/><path d="M96.155,83.326l-3.305-5.271h-0.002C84.321,64.38,75.521,54.906,66.54,49.7c-0.024,1.711-0.163,3.368-0.42,4.964   c7.362,4.793,14.689,12.865,21.924,24.155l-2.9-0.103c-2.103-0.088-4.134-0.217-6.096-0.386c-0.976,1.468-2.056,2.859-3.238,4.157   C79.343,83.326,96.155,83.326,96.155,83.326z"/><path d="M11.953,83.275c15.838-0.36,28.257-2.886,37.149-7.552c-1.537-0.883-2.965-1.83-4.278-2.851   c-8.025,3.624-18.974,5.608-32.767,5.934l1.011-1.626c1.568-2.375,3.141-4.602,4.717-6.675c-0.605-1.758-1.073-3.576-1.388-5.448   C12.631,69.26,3.845,83.326,3.845,83.326l8.109-0.045L11.953,83.275z"/></g><text x="0" y="115" fill="#000000" font-size="5px" font-weight="bold" font-family="'Helvetica Neue', Helvetica, Arial-Unicode, Arial, Sans-serif">Created by Martin Smith</text><text x="0" y="120" fill="#000000" font-size="5px" font-weight="bold" font-family="'Helvetica Neue', Helvetica, Arial-Unicode, Arial, Sans-serif">from the Noun Project</text></svg>