<svg xmlns="http://www.w3.org/2000/svg" xmlns:xlink="http://www.w3.org/1999/xlink" version="1.1" x="0px" y="0px" viewBox="0 0 100 125" enable-background="new 0 0 100 100" xml:space="preserve"><g><path fill="#000000" d="M94.65,31.822c1.193,0.547,2.17,1.753,2.17,2.681c0,0.928-1.074,1.687-2.387,1.687h-10.02   c-1.312,0-2.387,1.074-2.387,2.387v47.609c0,1.312-1.074,2.387-2.387,2.387h-59.28c-1.312,0-2.387-1.074-2.387-2.387V38.577   c0-1.312-1.074-2.387-2.387-2.387H5.567c-1.312,0-2.387-0.759-2.387-1.687c0-0.927,0.978-2.132,2.172-2.676l42.604-19.41   c1.194-0.544,3.148-0.542,4.341,0.005L94.65,31.822z"/></g><text x="0" y="115" fill="#000000" font-size="5px" font-weight="bold" font-family="'Helvetica Neue', Helvetica, Arial-Unicode, Arial, Sans-serif">Created by William Felker</text><text x="0" y="120" fill="#000000" font-size="5px" font-weight="bold" font-family="'Helvetica Neue', Helvetica, Arial-Unicode, Arial, Sans-serif">from the Noun Project</text></svg>