<svg xmlns="http://www.w3.org/2000/svg" xmlns:xlink="http://www.w3.org/1999/xlink" version="1.1" x="0px" y="0px" viewBox="0 0 90 112.5" enable-background="new 0 0 90 90" xml:space="preserve"><g><circle cx="44.5" cy="3" r="1.8"/><ellipse cx="44.5" cy="7.7" rx="4.4" ry="3.6"/><path d="M46.5,10.8c0,0,2.6,8.3,0.4,11.3c-0.3,0.4-0.4,0.8-0.4,1.3l0,6.2c0,0,6.2,0.1,8.4,2c0,0-3.4,2-5,3.6   c-0.5,0.4-0.7,1-0.7,1.6l-1,42.3l-3.7,9.6h-0.1l-3.7-9.6l-1-42.4c0-0.5-0.2-1-0.6-1.4c-1.5-1.5-5-3.7-5-3.7c2.2-1.9,8.4-2,8.4-2   l0-6.2c0-0.5-0.1-0.9-0.4-1.3c-2.2-3,0.4-11.3,0.4-11.3"/></g><text x="0" y="105" fill="#000000" font-size="5px" font-weight="bold" font-family="'Helvetica Neue', Helvetica, Arial-Unicode, Arial, Sans-serif">Created by Madeleine Bennett</text><text x="0" y="110" fill="#000000" font-size="5px" font-weight="bold" font-family="'Helvetica Neue', Helvetica, Arial-Unicode, Arial, Sans-serif">from the Noun Project</text></svg>