<svg xmlns="http://www.w3.org/2000/svg" xmlns:xlink="http://www.w3.org/1999/xlink" version="1.1" x="0px" y="0px" viewBox="0 0 100 125" enable-background="new 0 0 100 100" xml:space="preserve"><path fill="#000000" d="M62.1,41.2c-0.7-0.3-1.1-1-1.1-1.7V21.6c0-0.5,0.2-0.9,0.6-1.1c1.6-0.9,1.9-1.9,1.9-2.6v-2.7  c0-0.9-0.6-1.7-1.7-2.4c-0.4-0.3-0.9-0.5-1.5-0.8l1.6-6c0-0.1,0.1-0.2,0.1-0.4l0,0V5.5c0-1.1-1.2-1.9-3.8-2.4  c-2.1-0.5-4.8-0.8-7.7-0.8c-0.2,0-0.4,0-0.6,0c-0.2,0-0.4,0-0.6,0c-2.9,0-5.6,0.3-7.7,0.8c-2.6,0.6-3.8,1.4-3.8,2.4v0.1l0,0  c0,0.1,0.1,0.3,0.1,0.4l1.5,6c-1,0.4-1.8,0.9-2.3,1.5c-0.5,0.5-0.8,1.1-0.8,1.7v2.7c0,0.7,0.3,1.6,1.9,2.6c0.4,0.2,0.6,0.7,0.6,1.1  v17.9c0,0.7-0.4,1.4-1.1,1.7C27.1,46,20.1,56.8,20.2,68.7c0.1,7.9,3.2,15.3,8.8,20.9c5.6,5.5,13,8.6,20.9,8.6c0,0,0,0,0.1,0  c7.9,0,15.4-3.1,21-8.7s8.7-13.1,8.7-21C79.8,56.6,72.8,45.9,62.1,41.2z M50,97c-7.6,0-14.7-2.9-20.1-8.2  c-5.4-5.3-8.4-12.5-8.5-20.1c-0.1-11.4,6.6-21.8,17-26.5c1.1-0.5,1.8-1.6,1.8-2.8V21.6c0-0.9-0.5-1.7-1.2-2.1  c-0.9-0.5-1.4-1.1-1.4-1.6v-1.3c0.7,0.6,1.9,1.2,3.4,1.6c0.1,0,0.1,0,0.2,0c0.3,0,0.5-0.2,0.6-0.4c0.1-0.3-0.1-0.6-0.4-0.7  c-2.6-0.8-3.5-1.7-3.5-2.3c0-0.5,0.7-1.1,2-1.7l0.4,1.5c0,0.3,0.2,0.6,0.5,0.8c0.6,0.4,1.3,0.7,2.3,0.9c1.9,0.6,4.4,0.9,7,0.9  s5.1-0.3,7-0.9c1-0.3,1.7-0.6,2.3-0.9c0.3-0.2,0.5-0.5,0.5-0.8l0.4-1.5c1.3,0.6,2.1,1.2,2.1,1.7s-0.5,1-1.5,1.5  c-0.3,0.1-0.4,0.5-0.3,0.8c0.1,0.3,0.5,0.4,0.8,0.3c0.5-0.3,0.9-0.5,1.3-0.8v1.3c0,0.5-0.5,1.1-1.4,1.6c-0.7,0.4-1.2,1.2-1.2,2.1  v17.9c0,1.2,0.7,2.3,1.8,2.8c10.3,4.6,17,14.9,17,26.2c0,7.6-3,14.8-8.4,20.2C64.9,94,57.7,97,50,97L50,97z M57.9,6.8  c-2.1,0.5-5,0.8-8,0.8s-5.9-0.3-8-0.8C39.5,6.3,39,5.6,39,5.5s0.5-0.8,2.9-1.3c2.1-0.5,5-0.8,8-0.8s5.9,0.3,8,0.8  c2.4,0.6,2.9,1.2,2.9,1.3C60.8,5.6,60.3,6.3,57.9,6.8z M41.6,8c2.2,0.5,5.1,0.8,8.3,0.8c3.1,0,6-0.3,8.3-0.8  c0.9-0.2,1.6-0.4,2.2-0.7l-1.9,7.2l0,0c-0.3,0.2-0.9,0.5-1.9,0.8c-1.8,0.5-4.2,0.8-6.7,0.8s-4.8-0.3-6.7-0.8c-1-0.3-1.6-0.6-1.9-0.8  l0,0l-1.9-7.2C40,7.5,40.8,7.8,41.6,8z"/><path fill="#000000" d="M41,21.6c0.3,0.1,0.7,0.2,1.1,0.3l0.8,2.8l0,0c0.2,0.6,1,1,2.3,1.3s3,0.5,4.7,0.5c1.8,0,3.5-0.2,4.7-0.5  c1.5-0.4,2.3-0.9,2.4-1.5l0.6-2.5c0.3-0.1,0.6-0.1,0.9-0.2c0.3-0.1,0.5-0.4,0.4-0.7c-0.1-0.3-0.4-0.5-0.7-0.4c-2.3,0.6-5.2,1-8.2,1  c-3.2,0-6.3-0.4-8.7-1.1c-0.3-0.1-0.6,0.1-0.7,0.4C40.5,21.2,40.7,21.5,41,21.6z M55.8,24.3c-0.3,0.4-2.3,1-5.9,1  c-3.7,0-5.7-0.7-6-1c0,0,0,0,0,0.1l0,0l-0.6-2.2c2,0.4,4.3,0.6,6.7,0.6c2.2,0,4.4-0.2,6.4-0.5L55.8,24.3z"/><path fill="#000000" d="M60.8,44.1c-1.8-0.8-3-2.6-3-4.6v-6.4h-0.1c-0.2-0.9-1-1.6-2.4-2.2C53.9,30.3,52,30,50,30s-3.9,0.3-5.3,0.9  c-1.4,0.6-2.2,1.3-2.4,2.2h-0.1v6.4c0,2-1.2,3.8-3,4.6C29.5,48.4,23.3,58,23.5,68.7c0.1,7.1,2.9,13.7,7.9,18.6S43,95,50.1,95h0.1  c7.1,0,13.7-2.8,18.7-7.8s7.8-11.7,7.8-18.8C76.6,57.9,70.4,48.3,60.8,44.1z M32.1,86.4c-4.8-4.7-7.4-11-7.5-17.8  c-0.1-10.2,5.8-19.4,15.1-23.5c2.2-1,3.7-3.2,3.7-5.7v-4.1c0.4,0.3,0.8,0.5,1.3,0.7c1.4,0.6,3.3,0.9,5.3,0.9s3.9-0.3,5.3-0.9  c0.5-0.2,1-0.4,1.3-0.7v4.1c0,2.5,1.5,4.7,3.7,5.7c9.2,4.1,15.1,13.2,15.1,23.2c0,6.8-2.6,13.1-7.4,17.9s-11.1,7.4-17.9,7.5H50  C43.2,93.8,36.9,91.2,32.1,86.4z M43.4,33.5c0-0.5,0.7-1.1,1.8-1.5c1.3-0.5,3-0.8,4.9-0.8c3.8,0,6.6,1.2,6.6,2.4  c0,0.5-0.7,1.1-1.8,1.5c-1.3,0.5-3,0.8-4.9,0.8C46.2,35.8,43.4,34.6,43.4,33.5z"/><text x="0" y="115" fill="#000000" font-size="5px" font-weight="bold" font-family="'Helvetica Neue', Helvetica, Arial-Unicode, Arial, Sans-serif">Created by Trace Lexington Byrd</text><text x="0" y="120" fill="#000000" font-size="5px" font-weight="bold" font-family="'Helvetica Neue', Helvetica, Arial-Unicode, Arial, Sans-serif">from the Noun Project</text></svg>