<svg xmlns="http://www.w3.org/2000/svg" xmlns:xlink="http://www.w3.org/1999/xlink" version="1.1" x="0px" y="0px" viewBox="0 0 72 90" enable-background="new 0 0 72 72" xml:space="preserve"><path fill="#000000" d="M62.8,57.3c0-0.1-0.1-0.1-0.1-0.2l-9-9c-0.5-0.5-0.6-1.3-0.3-1.9c4.8-9.7,7.2-20.2,8.1-25.1  c0.3-1.5-0.8-3-2.4-3.2c-0.7-0.1-1.4-0.2-2-0.3c0.3-0.5,0.8-0.6,1.1-0.6c0.1,0,0.2-0.1,0.2-0.2c0.1-1.2,1-1.4,1.4-1.4  c0.1,0,0.2-0.1,0.2-0.2c0.2-1.4,1.1-1.6,1.5-1.6c0.1,0,0.2-0.1,0.2-0.2c0.1-1.3,1.1-1.5,1.6-1.5c0.1,0,0.2-0.1,0.2-0.2  c0.1-1.1,0.8-1.4,1.2-1.5c0.2,0,0.2-0.2,0.1-0.4l-0.2-0.2c-0.2-0.3,0.2-0.2,0.2-0.2c0.6,0.1,1.8,0,2.1-0.1c0,0,0.1,0,0.1-0.1L67.2,9  c0.1-0.1,0.2-0.1,0.3,0l0,0c0.1,0.1,0.2,0.1,0.3,0L68,8.7c0.1-0.1,0.1-0.2,0-0.3l-0.2-0.2C67.7,8.2,67.8,8,67.9,8  c0.8-0.2,2.5,0.3,3,0.4c0.1,0,0.2,0,0.2-0.1c1.5-2.8-1.4-5.9-1.4-5.9c0,0,0,0,0,0c-0.1-0.1-3.1-2.9-5.9-1.4c-0.1,0-0.1,0.1-0.1,0.2  c0.2,0.5,0.6,2.1,0.4,3c0,0.1-0.2,0.2-0.3,0.1L63.6,4c-0.1-0.1-0.2-0.1-0.3,0L63,4.3c-0.1,0.1-0.1,0.2,0,0.3c0.1,0.1,0.1,0.2,0,0.3  L62.8,5c0,0,0,0.1-0.1,0.1c0,0.3-0.2,1.4-0.1,2.1c0,0,0.1,0.4-0.2,0.2l-0.2-0.2c-0.1-0.1-0.3-0.1-0.4,0.1c-0.1,0.5-0.4,1.2-1.5,1.2  c-0.1,0-0.2,0.1-0.2,0.2c0,0.4-0.2,1.5-1.5,1.6c-0.1,0-0.2,0.1-0.2,0.2c0,0.4-0.2,1.3-1.6,1.5c-0.1,0-0.2,0.1-0.2,0.2  c0,0.4-0.1,1.2-1.4,1.4c-0.1,0-0.2,0.1-0.2,0.2c0,0.3-0.2,1-1,1.2c-0.1,0-0.1,0.1,0,0.2c0.1,0.1,0,0.2-0.1,0.2  c-0.7-0.1-2.3-0.2-3.1,0.3c0,0,0,0,0,0c0,0-0.1,0.1-0.2,0.1c-0.9-0.3-1.8-0.6-2.6-1c0-0.3-0.1-0.8-0.9-0.9c0,0,0,0,0,0  c-0.1,0-0.2,0.1-0.4,0.3c-4.2-1.9-6.9-4.2-8.6-5.8c-1.1-1.1-3-1.1-4.1,0c-1.7,1.6-4.4,3.9-8.6,5.8C25.1,14.1,25,14,24.9,14  c0,0,0,0,0,0C24.1,14,24,14.6,24,14.9c-0.8,0.3-1.7,0.7-2.6,1c-0.1-0.1-0.2-0.1-0.2-0.1c0,0,0,0,0,0c-0.8-0.5-2.5-0.4-3.1-0.3  c-0.1,0-0.1-0.1-0.1-0.2c0.1-0.1,0-0.1,0-0.2c-0.8-0.2-1-0.9-1-1.2c0-0.1-0.1-0.2-0.2-0.2c-1.3-0.1-1.4-1-1.4-1.4  c0-0.1-0.1-0.2-0.2-0.2c-1.4-0.2-1.6-1.1-1.6-1.5c0-0.1-0.1-0.2-0.2-0.2c-1.3-0.1-1.5-1.1-1.5-1.6c0-0.1-0.1-0.2-0.2-0.2  c-1.1-0.1-1.4-0.8-1.5-1.2c0-0.2-0.2-0.2-0.4-0.1L9.6,7.4C9.3,7.6,9.4,7.2,9.4,7.2c0.1-0.6,0-1.8-0.1-2.1c0,0,0-0.1-0.1-0.1L9,4.8  C8.9,4.8,8.9,4.6,9,4.6c0.1-0.1,0.1-0.2,0-0.3L8.7,4C8.6,3.9,8.5,3.9,8.4,4L8.3,4.2C8.2,4.3,8,4.2,8,4.1c-0.2-0.8,0.3-2.5,0.4-3  c0-0.1,0-0.2-0.1-0.2C5.5-0.5,2.5,2.3,2.4,2.4c0,0,0,0,0,0c0,0-2.9,3.1-1.4,5.9C1,8.4,1,8.4,1.1,8.4c0.5-0.2,2.1-0.6,3-0.4  c0.1,0,0.2,0.2,0.1,0.3L4,8.4C3.9,8.5,3.9,8.6,4,8.7L4.3,9c0.1,0.1,0.2,0.1,0.3,0c0.1-0.1,0.2-0.1,0.3,0L5,9.2c0,0,0.1,0,0.1,0.1  c0.3,0,1.4,0.2,2.1,0.1c0,0,0.4-0.1,0.2,0.2L7.2,9.8c-0.1,0.1-0.1,0.3,0.1,0.4c0.5,0.1,1.2,0.4,1.2,1.5c0,0.1,0.1,0.2,0.2,0.2  c0.4,0,1.5,0.3,1.6,1.5c0,0.1,0.1,0.2,0.2,0.2c0.4,0,1.3,0.2,1.5,1.6c0,0.1,0.1,0.2,0.2,0.2c0.4,0,1.2,0.1,1.4,1.4  c0,0.1,0.1,0.2,0.2,0.2c0.3,0,0.8,0.1,1.1,0.6c-0.7,0.1-1.3,0.2-2,0.3c-1.6,0.2-2.6,1.7-2.4,3.2c0.9,4.9,3.3,15.4,8.1,25.1  c0.3,0.6,0.2,1.4-0.3,1.9l-9,9c0,0.1-0.1,0.1-0.1,0.2L0.6,71c-0.2,0.3,0.2,0.6,0.4,0.4l13.7-8.7c0.1,0,0.1-0.1,0.2-0.1l7.2-7.2  c0.7-0.7,1.9-0.6,2.5,0.1c2.8,3.5,6.2,6.5,10.1,8.5c0.8,0.4,1.8,0.4,2.7,0c3.9-1.9,7.3-4.9,10.1-8.5c0.6-0.8,1.8-0.8,2.5-0.1  l7.2,7.2c0.1,0,0.1,0.1,0.2,0.1L71,71.4c0.3,0.2,0.6-0.2,0.4-0.4L62.8,57.3z"/><text x="0" y="87" fill="#000000" font-size="5px" font-weight="bold" font-family="'Helvetica Neue', Helvetica, Arial-Unicode, Arial, Sans-serif">Created by Creative Stall</text><text x="0" y="92" fill="#000000" font-size="5px" font-weight="bold" font-family="'Helvetica Neue', Helvetica, Arial-Unicode, Arial, Sans-serif">from the Noun Project</text></svg>